<svg xmlns="http://www.w3.org/2000/svg" width="22.016" height="21.967" viewBox="0 0 22.016 21.967">
  <g id="search_5_" data-name="search (5)" transform="translate(0.316 0.25)">
    <path id="Path_3" data-name="Path 3" d="M12.806,17.68a8.84,8.84,0,1,0-8.84-8.84,8.85,8.85,0,0,0,8.84,8.84Zm0-16A7.164,7.164,0,1,1,5.642,8.84a7.172,7.172,0,0,1,7.164-7.164ZM.441,21.221a.838.838,0,0,1,0-1.185l3.75-3.75a.838.838,0,0,1,1.185,1.185l-3.75,3.75a.838.838,0,0,1-1.185,0Z" transform="translate(-0.196)" fill="#464646" stroke="#464646" stroke-width="0.5"/>
  </g>
</svg>
