<svg xmlns="http://www.w3.org/2000/svg" width="36" height="36" viewBox="0 0 36 36">
  <g id="Group_113" data-name="Group 113" transform="translate(-1832 -48)">
    <circle id="Ellipse_1" data-name="Ellipse 1" cx="18" cy="18" r="18" transform="translate(1832 48)" fill="#d70f64"/>
    <g id="user_6_" data-name="user (6)" transform="translate(1840.287 55.287)">
      <g id="Group_2" data-name="Group 2" transform="translate(0 12.403)">
        <g id="Group_1" data-name="Group 1" transform="translate(0)">
          <path id="Path_1" data-name="Path 1" d="M15.554,308.213l-2.933-.978a.689.689,0,0,0-.218-.036H6.891a.688.688,0,0,0-.218.036l-2.933.978A5.462,5.462,0,0,0,0,313.4a.689.689,0,0,0,.689.689H18.6a.689.689,0,0,0,.689-.689A5.462,5.462,0,0,0,15.554,308.213Z" transform="translate(0 -307.199)" fill="#fff"/>
        </g>
      </g>
      <g id="Group_4" data-name="Group 4" transform="translate(5.512)">
        <g id="Group_3" data-name="Group 3">
          <path id="Path_2" data-name="Path 2" d="M140.667,0a4.134,4.134,0,0,0-4.134,4.134V6.891a4.134,4.134,0,0,0,8.269,0V4.134A4.134,4.134,0,0,0,140.667,0Z" transform="translate(-136.533)" fill="#fff"/>
        </g>
      </g>
    </g>
  </g>
</svg>
